<svg id="visual" viewBox="0 0 900 600" width="900" height="600" xmlns="http://www.w3.org/2000/svg" xmlns:xlink="http://www.w3.org/1999/xlink" version="1.1"><g stroke-width="1" stroke-linejoin="bevel"><path d="M434 297L402 387L463 310Z" fill="#205a7a" stroke="#205a7a"></path><path d="M402 387L493 422L463 310Z" fill="#1d4e6b" stroke="#1d4e6b"></path><path d="M463 310L428 230L434 297Z" fill="#246688" stroke="#246688"></path><path d="M434 297L315 384L402 387Z" fill="#081a28" stroke="#081a28"></path><path d="M263 288L315 384L434 297Z" fill="#246688" stroke="#246688"></path><path d="M399 507L489 484L493 422Z" fill="#15384f" stroke="#15384f"></path><path d="M399 507L493 422L402 387Z" fill="#00101c" stroke="#00101c"></path><path d="M489 484L566 414L493 422Z" fill="#246688" stroke="#246688"></path><path d="M493 422L566 414L463 310Z" fill="#00101c" stroke="#00101c"></path><path d="M463 310L538 160L428 230Z" fill="#246688" stroke="#246688"></path><path d="M315 384L399 507L402 387Z" fill="#19435d" stroke="#19435d"></path><path d="M428 230L319 217L434 297Z" fill="#1d4e6b" stroke="#1d4e6b"></path><path d="M566 414L597 302L463 310Z" fill="#081a28" stroke="#081a28"></path><path d="M319 217L263 288L434 297Z" fill="#081a28" stroke="#081a28"></path><path d="M597 302L538 160L463 310Z" fill="#0c2435" stroke="#0c2435"></path><path d="M428 230L420 108L319 217Z" fill="#1d4e6b" stroke="#1d4e6b"></path><path d="M538 160L507 139L428 230Z" fill="#277297" stroke="#277297"></path><path d="M597 302L564 167L538 160Z" fill="#1d4e6b" stroke="#1d4e6b"></path><path d="M538 160L565 64L507 139Z" fill="#246688" stroke="#246688"></path><path d="M180 326L216 436L315 384Z" fill="#081a28" stroke="#081a28"></path><path d="M315 384L260 520L399 507Z" fill="#00101c" stroke="#00101c"></path><path d="M216 436L226 463L315 384Z" fill="#246688" stroke="#246688"></path><path d="M507 139L420 108L428 230Z" fill="#246688" stroke="#246688"></path><path d="M226 463L260 520L315 384Z" fill="#277297" stroke="#277297"></path><path d="M178 197L180 326L263 288Z" fill="#081a28" stroke="#081a28"></path><path d="M263 288L180 326L315 384Z" fill="#19435d" stroke="#19435d"></path><path d="M178 197L263 288L319 217Z" fill="#00101c" stroke="#00101c"></path><path d="M399 507L464 600L489 484Z" fill="#246688" stroke="#246688"></path><path d="M637 524L682 415L566 414Z" fill="#205a7a" stroke="#205a7a"></path><path d="M382 600L464 600L399 507Z" fill="#15384f" stroke="#15384f"></path><path d="M293 600L382 600L399 507Z" fill="#112e42" stroke="#112e42"></path><path d="M566 414L682 415L597 302Z" fill="#297ea6" stroke="#297ea6"></path><path d="M597 302L684 265L564 167Z" fill="#277297" stroke="#277297"></path><path d="M637 524L566 414L489 484Z" fill="#081a28" stroke="#081a28"></path><path d="M682 415L684 265L597 302Z" fill="#112e42" stroke="#112e42"></path><path d="M589 600L637 524L489 484Z" fill="#1d4e6b" stroke="#1d4e6b"></path><path d="M179 600L293 600L260 520Z" fill="#15384f" stroke="#15384f"></path><path d="M260 520L293 600L399 507Z" fill="#205a7a" stroke="#205a7a"></path><path d="M212 76L178 197L319 217Z" fill="#00101c" stroke="#00101c"></path><path d="M464 600L589 600L489 484Z" fill="#1d4e6b" stroke="#1d4e6b"></path><path d="M420 0L300 62L420 108Z" fill="#277297" stroke="#277297"></path><path d="M420 108L300 62L319 217Z" fill="#081a28" stroke="#081a28"></path><path d="M564 167L565 64L538 160Z" fill="#277297" stroke="#277297"></path><path d="M507 139L565 64L420 108Z" fill="#112e42" stroke="#112e42"></path><path d="M731 74L565 64L564 167Z" fill="#0c2435" stroke="#0c2435"></path><path d="M589 600L686 529L637 524Z" fill="#19435d" stroke="#19435d"></path><path d="M637 524L686 529L682 415Z" fill="#277297" stroke="#277297"></path><path d="M777 316L723 220L684 265Z" fill="#00101c" stroke="#00101c"></path><path d="M777 316L684 265L682 415Z" fill="#112e42" stroke="#112e42"></path><path d="M684 265L723 220L564 167Z" fill="#00101c" stroke="#00101c"></path><path d="M539 0L420 0L420 108Z" fill="#1d4e6b" stroke="#1d4e6b"></path><path d="M207 0L212 76L300 62Z" fill="#246688" stroke="#246688"></path><path d="M300 62L212 76L319 217Z" fill="#1d4e6b" stroke="#1d4e6b"></path><path d="M216 436L61 474L226 463Z" fill="#277297" stroke="#277297"></path><path d="M226 463L179 600L260 520Z" fill="#19435d" stroke="#19435d"></path><path d="M180 326L88 413L216 436Z" fill="#205a7a" stroke="#205a7a"></path><path d="M73 307L88 413L180 326Z" fill="#081a28" stroke="#081a28"></path><path d="M73 307L180 326L84 228Z" fill="#277297" stroke="#277297"></path><path d="M774 422L777 316L682 415Z" fill="#205a7a" stroke="#205a7a"></path><path d="M686 529L774 422L682 415Z" fill="#081a28" stroke="#081a28"></path><path d="M61 474L179 600L226 463Z" fill="#205a7a" stroke="#205a7a"></path><path d="M84 228L180 326L178 197Z" fill="#246688" stroke="#246688"></path><path d="M565 64L539 0L420 108Z" fill="#277297" stroke="#277297"></path><path d="M564 0L539 0L565 64Z" fill="#1d4e6b" stroke="#1d4e6b"></path><path d="M100 121L84 228L178 197Z" fill="#00101c" stroke="#00101c"></path><path d="M420 0L296 0L300 62Z" fill="#00101c" stroke="#00101c"></path><path d="M670 0L564 0L565 64Z" fill="#081a28" stroke="#081a28"></path><path d="M777 316L788 231L723 220Z" fill="#205a7a" stroke="#205a7a"></path><path d="M723 220L731 74L564 167Z" fill="#0c2435" stroke="#0c2435"></path><path d="M900 283L788 231L777 316Z" fill="#277297" stroke="#277297"></path><path d="M724 600L773 528L686 529Z" fill="#15384f" stroke="#15384f"></path><path d="M686 529L773 528L774 422Z" fill="#19435d" stroke="#19435d"></path><path d="M774 422L900 383L777 316Z" fill="#277297" stroke="#277297"></path><path d="M589 600L724 600L686 529Z" fill="#00101c" stroke="#00101c"></path><path d="M0 464L61 474L88 413Z" fill="#1d4e6b" stroke="#1d4e6b"></path><path d="M88 413L61 474L216 436Z" fill="#246688" stroke="#246688"></path><path d="M87 0L100 121L212 76Z" fill="#112e42" stroke="#112e42"></path><path d="M212 76L100 121L178 197Z" fill="#205a7a" stroke="#205a7a"></path><path d="M761 76L731 74L723 220Z" fill="#15384f" stroke="#15384f"></path><path d="M296 0L207 0L300 62Z" fill="#00101c" stroke="#00101c"></path><path d="M731 74L670 0L565 64Z" fill="#297ea6" stroke="#297ea6"></path><path d="M788 231L761 76L723 220Z" fill="#19435d" stroke="#19435d"></path><path d="M731 74L761 76L670 0Z" fill="#112e42" stroke="#112e42"></path><path d="M0 218L73 307L84 228Z" fill="#15384f" stroke="#15384f"></path><path d="M0 218L0 338L73 307Z" fill="#081a28" stroke="#081a28"></path><path d="M73 307L0 381L88 413Z" fill="#0c2435" stroke="#0c2435"></path><path d="M0 338L0 381L73 307Z" fill="#1d4e6b" stroke="#1d4e6b"></path><path d="M0 600L76 600L61 474Z" fill="#081a28" stroke="#081a28"></path><path d="M61 474L76 600L179 600Z" fill="#112e42" stroke="#112e42"></path><path d="M0 381L0 464L88 413Z" fill="#19435d" stroke="#19435d"></path><path d="M100 121L0 218L84 228Z" fill="#297ea6" stroke="#297ea6"></path><path d="M0 105L0 218L100 121Z" fill="#297ea6" stroke="#297ea6"></path><path d="M900 526L774 422L773 528Z" fill="#112e42" stroke="#112e42"></path><path d="M900 526L900 383L774 422Z" fill="#297ea6" stroke="#297ea6"></path><path d="M788 231L900 216L761 76Z" fill="#112e42" stroke="#112e42"></path><path d="M724 600L828 600L773 528Z" fill="#0c2435" stroke="#0c2435"></path><path d="M900 383L900 283L777 316Z" fill="#205a7a" stroke="#205a7a"></path><path d="M207 0L87 0L212 76Z" fill="#081a28" stroke="#081a28"></path><path d="M900 283L900 216L788 231Z" fill="#205a7a" stroke="#205a7a"></path><path d="M87 0L0 105L100 121Z" fill="#205a7a" stroke="#205a7a"></path><path d="M0 464L0 600L61 474Z" fill="#00101c" stroke="#00101c"></path><path d="M828 600L900 526L773 528Z" fill="#19435d" stroke="#19435d"></path><path d="M900 62L834 0L761 76Z" fill="#19435d" stroke="#19435d"></path><path d="M761 76L834 0L670 0Z" fill="#112e42" stroke="#112e42"></path><path d="M828 600L900 600L900 526Z" fill="#00101c" stroke="#00101c"></path><path d="M900 216L900 62L761 76Z" fill="#1d4e6b" stroke="#1d4e6b"></path><path d="M87 0L0 0L0 105Z" fill="#00101c" stroke="#00101c"></path><path d="M900 62L900 0L834 0Z" fill="#19435d" stroke="#19435d"></path></g></svg>